General
Complete name                    : The Machinist.mkv
Format                           : Matroska
File size                        : 2.24 GiB
Duration                         : 1h 37mn
Overall bit rate                 : 3 301 Kbps


Video
ID                               : 1
Format                           : AVC
Duration                         : 1h 37mn
Bit rate                         : 1 725 Kbps
Nominal bit rate                 : 1 766 Kbps
Width                            : 718 pixels
Height                           : 436 pixels
Display aspect ratio             : 2.35:1
Frame rate                       : 25.000 fps
Resolution                       : 8 bits
Colorimetry                      : 4:2:0
Scan type                        : Progressive
Bits/(Pixel*Frame)               : 0.220
Stream size                      : 1.17 GiB (52%)
Writing library                  : x264 core 79


Audio
ID                               : 2
Format                           : DTS
Format/Info                      : Digital Theater Systems
Codec ID                         : A_DTS
Duration                         : 1h 37mn
Bit rate mode                    : Constant
Bit rate                         : 1 510 Kbps
Channel(s)                       : 6 channels
Channel positions                : Front: L C R, Surround: L R, LFE
Sampling rate                    : 48.0 KHz
Resolution                       : 24 bits
Stream size                      : 1.03 GiB (46%)
Language                         : English

Text #1
Language                         : Danish

Text #2
Language                         : Swedish

Text #3
Language                         : Norwegian

Text #4
Language                         : Finnish

Text #5
Language                         : Icelandic

